<svg  id="my-svg" width="26" height="25" viewBox="0 0 26 25" fill="none" xmlns="http://www.w3.org/2000/svg">
<path id="path" d="M12.8359 21.0261L12.7097 21.156L12.5709 21.0261C6.57592 15.4258 2.61294 11.7225 2.61294 7.96735C2.61294 5.36861 4.50608 3.41955 7.03028 3.41955C8.97391 3.41955 10.8671 4.71892 11.536 6.48607H13.8835C14.5524 4.71892 16.4455 3.41955 18.3891 3.41955C20.9133 3.41955 22.8065 5.36861 22.8065 7.96735C22.8065 11.7225 18.8435 15.4258 12.8359 21.0261ZM18.3891 0.820801C16.1931 0.820801 14.0854 1.87329 12.7097 3.5235C11.334 1.87329 9.22633 0.820801 7.03028 0.820801C3.14302 0.820801 0.0887451 3.95229 0.0887451 7.96735C0.0887451 12.866 4.37987 16.8811 10.8797 22.9491L12.7097 24.6643L14.5398 22.9491C21.0396 16.8811 25.3307 12.866 25.3307 7.96735C25.3307 3.95229 22.2764 0.820801 18.3891 0.820801Z" fill="#D4AF37"/>
</svg>
